<?xml version="1.0" encoding="UTF-8" standalone="no"?>
<!-- Created with Inkscape (http://www.inkscape.org/) -->

<svg
   xmlns:dc="http://purl.org/dc/elements/1.1/"
   xmlns:cc="http://creativecommons.org/ns#"
   xmlns:rdf="http://www.w3.org/1999/02/22-rdf-syntax-ns#"
   xmlns:svg="http://www.w3.org/2000/svg"
   xmlns="http://www.w3.org/2000/svg"
   xmlns:sodipodi="http://sodipodi.sourceforge.net/DTD/sodipodi-0.dtd"
   xmlns:inkscape="http://www.inkscape.org/namespaces/inkscape"
   width="78.434196mm"
   height="75.269669mm"
   viewBox="0 0 78.434196 75.269669"
   version="1.1"
   id="svg8"
   inkscape:version="0.91+devel r14842"
   sodipodi:docname="Logo_of_Rochester,_New_York.svg">
  <defs
     id="defs2" />
  <sodipodi:namedview
     id="base"
     pagecolor="#ffffff"
     bordercolor="#666666"
     borderopacity="1.0"
     inkscape:pageopacity="0.0"
     inkscape:pageshadow="2"
     inkscape:zoom="0.81871103"
     inkscape:cx="56.010232"
     inkscape:cy="49.463963"
     inkscape:document-units="mm"
     inkscape:current-layer="layer1"
     showgrid="false"
     fit-margin-top="0"
     fit-margin-left="0"
     fit-margin-right="0"
     fit-margin-bottom="0"
     inkscape:window-width="1440"
     inkscape:window-height="851"
     inkscape:window-x="0"
     inkscape:window-y="1"
     inkscape:window-maximized="1" />
  <metadata
     id="metadata5">
    <rdf:RDF>
      <cc:Work
         rdf:about="">
        <dc:format>image/svg+xml</dc:format>
        <dc:type
           rdf:resource="http://purl.org/dc/dcmitype/StillImage" />
        <dc:title></dc:title>
      </cc:Work>
    </rdf:RDF>
  </metadata>
  <g
     inkscape:label="Layer 1"
     inkscape:groupmode="layer"
     id="layer1"
     transform="translate(-124.94866,-30.922463)">
    <path
       style="fill:#0258a1;fill-opacity:1;stroke-width:0.26458335"
       d="m 144.41946,105.53878 c -0.7276,-0.37477 -1.36506,-0.71895 -1.41657,-0.76484 -0.0515,-0.0459 4.68909,-6.759578 10.53468,-14.919304 l 10.62834,-14.835857 10.56584,14.704045 c 5.81121,8.087228 10.56584,14.791706 10.56584,14.898836 0,0.10714 -0.53861,0.45647 -1.1969,0.7763 l -1.19689,0.58149 -1.02638,-0.67923 c -1.67004,-1.10518 -3.23322,-1.43665 -6.77508,-1.43665 -2.19472,0 -3.59252,-0.12721 -4.35542,-0.39637 -1.31358,-0.46346 -3.97604,-2.31898 -5.27884,-3.678918 -0.50149,-0.52349 -1.02344,-0.95179 -1.15989,-0.95179 -0.13645,0 -1.11227,0.82088 -2.16848,1.824178 -1.05622,1.00331 -2.43927,2.12776 -3.07345,2.49878 -1.47248,0.86146 -3.95774,1.25381 -7.41488,1.17059 -2.37581,-0.0572 -2.87498,0.009 -3.81004,0.50827 -0.59181,0.31575 -1.23147,0.76138 -1.42145,0.9903 -0.43476,0.52384 -0.41521,0.52668 -2.00043,-0.28983 z m 11.77536,-5.5366 c 1.95147,-0.579518 4.4131,-3.022018 5.308,-5.266732 0.57132,-1.43306 0.62744,-1.934988 0.5768,-5.159375 -0.0925,-5.88947 0.35037,-6.067738 -5.83236,2.347817 -2.95357,4.020211 -5.39435,7.428532 -5.42396,7.574062 -0.0749,0.3681 1.58178,0.893168 2.8747,0.911098 0.59205,0.008 1.71562,-0.17487 2.49682,-0.40687 z m 20.25885,0.12468 c 0.649,-0.163418 1.2405,-0.395028 1.31446,-0.514688 0.13489,-0.21826 -10.81438,-14.600802 -11.22213,-14.740965 -0.35111,-0.12069 -0.56244,6.462749 -0.25999,8.098901 0.97912,5.296554 5.34661,8.370712 10.16766,7.156752 z m -38.95486,0.23376 c -1.07595,-1.119758 -1.08059,-1.133298 -0.69827,-2.036758 0.56681,-1.33941 0.30969,-3.443605 -0.80466,-6.58503 -1.46094,-4.118483 -1.26821,-6.367999 0.91637,-10.695625 0.43724,-0.866167 0.75742,-1.608008 0.71151,-1.648537 -0.0459,-0.04053 -0.67878,-0.372954 -1.40638,-0.738722 -1.99364,-1.002204 -4.52379,-2.960463 -5.4155,-4.191429 -0.45911,-0.63379 -1.19398,-2.37722 -1.74207,-4.132947 -0.90264,-2.891478 -1.02487,-3.114485 -2.5553,-4.662261 -1.47781,-1.494557 -1.6023,-1.710803 -1.54511,-2.683864 0.0342,-0.582083 0.14048,-1.19498 0.23614,-1.361991 0.12032,-0.210079 5.50983,1.320719 17.48844,4.967296 9.52299,2.899026 17.33327,5.297858 17.35618,5.330741 0.079,0.113403 -21.03475,29.425237 -21.24624,29.495727 -0.11658,0.0389 -0.69937,-0.43661 -1.29511,-1.0566 z m 8.87366,-15.139446 c 2.78675,-3.995926 5.13265,-7.436848 5.2131,-7.646499 0.18713,-0.487658 -5.19578,0.881126 -7.17493,1.824467 -3.47273,1.655238 -5.82587,5.721966 -5.30824,9.173792 0.17294,1.153253 1.56916,3.913555 1.97956,3.913555 0.12303,0 2.50375,-3.269393 5.29051,-7.265315 z m -0.63009,-10.539493 c 4.1124,-1.606856 4.51111,-1.805064 4.08817,-2.032322 -0.58585,-0.314796 -16.87608,-5.827454 -17.22047,-5.827454 -0.58886,0 -0.0948,3.261048 0.72125,4.760355 2.21952,4.077991 6.90925,5.249161 12.41105,3.099421 z m 33.09941,12.098492 c -5.7916,-8.08618 -10.46217,-14.770164 -10.37904,-14.853296 0.17963,-0.179626 33.39703,-10.342619 34.16504,-10.452929 0.45215,-0.06494 0.55201,0.116557 0.68606,1.246916 0.15289,1.289174 0.1299,1.346276 -0.90124,2.238822 -1.49292,1.292246 -2.45383,2.932332 -3.25253,5.5514 -0.37972,1.245169 -0.90559,2.680663 -1.16861,3.189986 -0.81516,1.578531 -3.28745,3.621418 -6.0793,5.023398 -0.65484,0.328843 -1.22839,0.630954 -1.27456,0.671359 -0.0462,0.0404 0.23668,0.70616 0.62854,1.479457 2.38935,4.715156 2.54493,6.596772 0.93048,11.253344 -1.1599,3.345497 -1.28818,4.4587 -0.70449,6.113062 l 0.37372,1.05924 -1.11134,1.090688 c -0.61124,0.59989 -1.17236,1.0907 -1.24694,1.0907 -0.0746,0 -4.87419,-6.615964 -10.66579,-14.702147 z m 9.20251,4.714129 c 0.93907,-1.461426 1.29524,-2.843771 1.17194,-4.548415 -0.21561,-2.980767 -2.45929,-6.158458 -5.31051,-7.521195 -1.92042,-0.91786 -7.4264,-2.363245 -7.24986,-1.903171 0.25184,0.656293 10.33042,14.964968 10.54085,14.964968 0.11551,0 0.49692,-0.446484 0.84758,-0.992187 z m 3.41028,-16.585346 c 2.53107,-1.197385 4.1353,-3.558709 4.36542,-6.425623 0.087,-1.083684 0.0352,-1.661428 -0.14882,-1.661428 -0.34941,0 -17.28028,5.760162 -17.46046,5.940335 -0.0717,0.07165 0.15413,0.239652 0.50173,0.373333 0.34761,0.133681 1.6693,0.673716 2.9371,1.200081 3.11397,1.292855 3.97179,1.478621 6.31733,1.368047 1.47872,-0.06971 2.39782,-0.279146 3.4877,-0.794745 z M 166.77675,49.325132 V 31.065077 l 1.52136,0.181486 c 0.83674,0.09982 1.59058,0.257212 1.67519,0.349768 0.0846,0.09255 0.29291,0.658176 0.4629,1.256937 0.44148,1.555026 1.09526,2.267597 3.74663,4.083552 4.05102,2.774604 5.0063,4.222318 5.96224,9.035747 l 0.4531,2.281539 3.49124,-0.14638 c 4.39373,-0.184219 5.34962,0.09947 8.67128,2.573423 2.53135,1.885333 4.28588,2.644402 6.12717,2.650818 1.03261,0.0036 1.13365,0.07554 1.79772,1.280086 l 0.70361,1.276275 -1.23278,0.409544 c -0.67803,0.225251 -8.46583,2.857043 -17.30622,5.84843 l -16.07344,5.438884 z m 17.06563,8.98024 c 4.36562,-1.314667 8.03309,-2.478593 8.14993,-2.586506 0.39019,-0.36038 -1.51736,-2.458733 -2.99056,-3.289692 -1.31519,-0.741836 -1.67159,-0.820184 -3.70416,-0.814296 -2.63916,0.0076 -3.99476,0.545301 -6.06272,2.40457 -1.09737,0.98663 -4.7852,6.26011 -4.7852,6.842683 0,0.263882 0.27245,0.18972 9.39271,-2.556759 z m -11.1125,-2.598262 c 2.60161,-3.214351 3.35363,-4.773151 3.51488,-7.285682 0.14624,-2.278713 -0.37789,-4.308061 -1.51979,-5.884413 -0.86929,-1.200015 -3.20683,-2.696178 -4.21857,-2.700128 l -0.63597,-0.0025 0.17295,3.21654 c 0.0951,1.769097 0.17296,5.936284 0.17296,9.260417 0,3.324132 0.0893,6.036465 0.19843,6.027406 0.10914,-0.009 1.15094,-1.193305 2.31511,-2.631658 z m -28.17813,5.992557 c -9.09505,-3.089264 -16.73963,-5.695138 -16.98796,-5.79083 -0.41061,-0.158228 -0.393,-0.278668 0.19445,-1.329725 0.63216,-1.131065 0.68568,-1.161888 2.50698,-1.443799 2.17807,-0.337134 3.3476,-0.898345 5.6614,-2.716691 2.52819,-1.986832 3.79613,-2.462389 6.64076,-2.490714 1.30969,-0.01304 3.03609,0.06281 3.83646,0.168563 l 1.4552,0.192274 0.45702,-2.349114 c 0.58551,-3.009595 1.3831,-5.128763 2.34086,-6.219588 0.41759,-0.475607 1.89327,-1.66859 3.2793,-2.651074 2.95087,-2.091718 3.75117,-2.962676 4.17361,-4.542135 0.19225,-0.718805 0.46505,-1.165087 0.71815,-1.174868 0.22448,-0.0087 0.97369,-0.108862 1.66492,-0.222638 l 1.25677,-0.206865 v 18.214304 c 0,14.404273 -0.0692,18.210691 -0.33073,18.197022 -0.1819,-0.0095 -7.77214,-2.54486 -16.86719,-5.634122 z m 9.525,-0.87593 c 0,-0.555228 -3.64447,-5.762738 -4.76957,-6.815133 -3.70817,-3.46856 -8.58629,-3.524223 -11.7573,-0.13416 -0.66012,0.705719 -1.20021,1.402246 -1.20021,1.547839 0,0.145593 0.80367,0.505631 1.78594,0.800085 0.98226,0.294453 4.88156,1.480633 8.6651,2.635957 7.42663,2.267754 7.27604,2.227077 7.27604,1.965412 z m 4.23334,-12.011329 v -9.278246 l -0.59532,0.18407 c -2.33265,0.721255 -4.1599,2.403446 -4.97725,4.582125 -0.79531,2.11993 -0.65284,5.39813 0.32334,7.440298 0.68523,1.433494 4.57147,6.35 5.01935,6.35 0.12643,0 0.22988,-4.175211 0.22988,-9.278247 z"
       id="path23"
       inkscape:connector-curvature="0" />
    <path
       style="fill:#0258a1;fill-opacity:1;stroke-width:0.00283889"
       d="m 188.61413,106.06858 c -0.14648,-0.0112 -0.23755,-0.0282 -0.35628,-0.0668 -0.11143,-0.0363 -0.23055,-0.0943 -0.33073,-0.16122 -0.0775,-0.0518 -0.13729,-0.10136 -0.20871,-0.17309 -0.11135,-0.11181 -0.18833,-0.21954 -0.25861,-0.3619 -0.19903,-0.40317 -0.18262,-0.88714 0.0434,-1.27864 0.06,-0.10388 0.12696,-0.19077 0.21516,-0.27901 0.0617,-0.0618 0.0876,-0.0846 0.14493,-0.128 0.53293,-0.4034 1.28672,-0.35772 1.76533,0.10697 0.11903,0.11558 0.20562,0.23401 0.27731,0.37933 0.21495,0.43575 0.1809,0.95357 -0.0893,1.35798 -0.0509,0.0762 -0.10101,0.13682 -0.17027,0.20605 -0.11086,0.11078 -0.21845,0.18826 -0.35796,0.25776 -0.14953,0.0745 -0.31064,0.12037 -0.47978,0.1366 -0.0332,0.003 -0.16857,0.006 -0.19446,0.004 z m 0.15486,-0.22839 c 0.3614,-0.0281 0.68556,-0.22421 0.87773,-0.53098 0.23148,-0.36951 0.2298,-0.84173 -0.004,-1.21054 -0.0801,-0.12616 -0.19597,-0.24594 -0.31918,-0.32989 -0.38547,-0.26262 -0.89366,-0.26262 -1.27912,0 -0.10663,0.0727 -0.21334,0.17809 -0.29108,0.28762 -0.0904,0.12735 -0.15756,0.28781 -0.18625,0.44489 -0.0136,0.0742 -0.0171,0.1167 -0.0171,0.20632 -1e-5,0.0899 0.003,0.12931 0.0171,0.20547 0.0753,0.41554 0.38218,0.759 0.78771,0.88168 0.0729,0.0221 0.16377,0.0393 0.23834,0.0453 0.0439,0.003 0.13247,0.003 0.17616,1.9e-4 z m -0.67863,-1.11315 v -0.73292 l 0.3122,0.002 c 0.17171,8.2e-4 0.33299,0.003 0.35841,0.005 0.0828,0.005 0.1584,0.0181 0.2066,0.0354 0.0829,0.0297 0.15749,0.0945 0.20094,0.17449 0.0378,0.0697 0.0531,0.14034 0.0462,0.21435 -0.007,0.0741 -0.0255,0.12818 -0.0646,0.18718 -0.0227,0.0343 -0.0794,0.0923 -0.1119,0.11442 -0.0562,0.0383 -0.11853,0.0608 -0.2055,0.0743 l -0.0312,0.005 0.0352,0.018 c 0.0389,0.0199 0.0702,0.0422 0.0943,0.0673 0.0503,0.0523 0.0978,0.11336 0.15513,0.19965 0.0351,0.0528 0.23066,0.36443 0.23066,0.36756 0,8.2e-4 -0.0644,0.002 -0.14315,0.002 h -0.14315 l -0.0141,-0.0249 c -0.008,-0.0137 -0.0451,-0.0797 -0.083,-0.14683 -0.0825,-0.14605 -0.0942,-0.16594 -0.13192,-0.22294 -0.0422,-0.0639 -0.0697,-0.0995 -0.10437,-0.13528 -0.0761,-0.0786 -0.11836,-0.0917 -0.29515,-0.0918 l -0.0759,-3e-5 -8.2e-4,0.31015 -9.1e-4,0.31014 -0.1171,8.2e-4 -0.1171,8.2e-4 z m 0.64481,-0.0971 c 0.0605,-0.009 0.1101,-0.0238 0.14014,-0.043 0.0234,-0.0149 0.0565,-0.0525 0.0696,-0.079 0.0146,-0.0295 0.0197,-0.0546 0.0198,-0.0957 7e-5,-0.0398 -0.004,-0.0576 -0.0216,-0.0932 -0.0297,-0.0605 -0.0867,-0.0982 -0.17211,-0.11407 -0.0279,-0.005 -0.0492,-0.007 -0.16539,-0.008 -0.0734,-0.002 -0.16633,-0.002 -0.20653,-0.002 l -0.0731,-1.5e-4 v 0.22181 0.2218 l 0.1895,-0.002 c 0.14699,-8.2e-4 0.19626,-0.002 0.21969,-0.006 z"
       id="path36"
       inkscape:connector-curvature="0" />
  </g>
</svg>
